<svg xmlns="http://www.w3.org/2000/svg" viewBox="0 0 512 512">
  <defs>
    <linearGradient id="grad" x1="0%" y1="0%" x2="100%" y2="100%">
      <stop offset="0%" style="stop-color:#3b82f6;stop-opacity:1" />
      <stop offset="100%" style="stop-color:#2563eb;stop-opacity:1" />
    </linearGradient>
  </defs>
  <!-- Fundo Azul Arredondado (Squircle) -->
  <rect width="512" height="512" rx="128" fill="url(#grad)"/>
  
  <!-- Ícone da Caneta (Pen Tool) Centralizado -->
  <g transform="translate(116, 116) scale(1.1)" stroke="white" stroke-width="32" fill="none" stroke-linecap="round" stroke-linejoin="round">
    <!-- Corpo da Caneta -->
    <path d="M234 174 L30 378 L4 404 L30 378 L4 404 L30 430 L56 404 L260 200" />
    <!-- Detalhe superior -->
    <path d="M260 200 L208 148 L260 96 L312 148 Z" />
    <!-- Linha do meio -->
    <path d="M4 404 L108 300" />
    <!-- Círculo do meio (Breather hole) -->
    <circle cx="158" cy="250" r="25" fill="white" stroke="none" />
    
    <!-- Recriando o desenho exato da imagem enviada (Estilo Lucide/Feather reforçado) -->
    <path d="M366 94 L294 22 L54 262 L18 418 L174 382 L414 142 Z" stroke="white" stroke-width="35" fill="none"/>
    <path d="M54 262 L174 382" stroke="white" stroke-width="35"/>
    <circle cx="114" cy="322" r="25" fill="white" stroke="none"/>
    <line x1="114" y1="322" x2="68" y2="368" stroke="white" stroke-width="20"/>
  </g>
</svg>